<svg xmlns="http://www.w3.org/2000/svg" width="815.37" height="671.68" viewBox="0 0 287.64606 236.95438">
  <g transform="translate(38.75693,-216.41937)">
    <path fill="#0F0" d="m -35.934708,216.41937 8.880078,10.12341 86.028339,-3.58479 c 0,0 -2.087983,2.37169 -2.816365,4.55683 l -74.891034,7.22074 7.211962,7.46776 66.313263,-10.96677 c 0,0 -0.725019,1.85443 -0.725019,3.88349 l -56.8828333,14.46577 7.1685546,6.48644 49.5003367,-18.572 c 0,0 0.0067,3.00013 0.6165,4.27623 l -42.051696,21.08035 6.444051,4.69429 36.399845,-22.83012 c 0,0 1.06979,2.69192 1.962671,3.58481 l -28.206547,26.54255 5.675623,3.96824 24.74991,-28.24945 c 0.382665,0.89289 3.286104,2.60347 3.286104,2.60347 L 45.616902,282.1027 c 3.146348,2.12593 7.126697,0.89607 7.126697,0.89607 l 12.545486,-28.93208 c 2.423541,1.02044 4.096909,0.81078 4.096909,0.81078 l -8.662522,25.85943 c 4.081751,-0.6803 6.059062,-3.20032 6.059062,-3.20032 l 5.248775,-22.61672 c 1.913321,0.21259 3.840594,-0.17052 3.840594,-0.17052 -0.127561,2.76368 -2.986898,18.43452 -2.986898,18.43452 0,0 6.406468,-8.02391 7.894609,-8.44909 0,0 -2.30486,-8.37118 -2.43241,-10.32701 0,0 2.095685,-0.13142 3.413744,-1.15189 0,0 1.792404,5.55384 1.877404,7.33962 1.913321,-1.70074 3.115056,-4.26744 3.115056,-4.26744 0,0 -1.154594,-0.99568 -1.877404,-4.86481 0,-3e-5 4.315701,-1.61023 5.051372,0.0915 0.735658,1.70166 0.04766,7.04865 -4.119129,11.6406 0,0 -4.394112,6.87547 -8.050672,9.04391 1.78576,-0.12755 8.421396,2.37675 9.739458,5.6932 l 10.507368,-26.26921 -7.668265,-8.81651 c -12.712941,7.73831 -28.201831,6.05992 -30.229164,-0.11369 -2.02733,-6.17361 -0.422193,-16.12024 5.168162,-20.50469 1.812808,-1.42176 5.625761,-3.00274 5.93607,-5.80895 l -107.145912,0 z m 174.855478,0 c 0.31031,2.80621 4.12326,4.38719 5.93607,5.80895 5.59035,4.38445 7.19549,14.33108 5.16816,20.50469 -2.02733,6.17361 -17.51622,7.852 -30.22916,0.11369 l -7.66827,8.81651 10.50737,26.26921 c 1.31806,-3.31645 7.95369,-5.82075 9.73945,-5.6932 -3.65656,-2.16844 -8.05118,-9.04391 -8.05118,-9.04391 -4.16679,-4.59195 -4.85428,-9.93894 -4.11861,-11.6406 0.73566,-1.7017 5.05137,-0.0915 5.05137,-0.0915 -0.72281,3.86913 -1.87792,4.86481 -1.87792,4.86481 0,0 1.20225,2.5667 3.11557,4.26744 0.085,-1.78578 1.8774,-7.33962 1.8774,-7.33962 1.31806,1.02047 3.41375,1.15189 3.41375,1.15189 -0.12755,1.95583 -2.43241,10.32701 -2.43241,10.32701 1.48814,0.42518 7.89461,8.44909 7.89461,8.44909 0,0 -2.85934,-15.67084 -2.9869,-18.43452 0,0 1.92675,0.38311 3.84007,0.17052 l 5.24878,22.61672 c 0,0 1.97783,2.52002 6.05958,3.20032 l -8.66252,-25.85943 c 0,0 1.67337,0.20966 4.0969,-0.81078 l 12.54549,28.93208 c 0,0 3.98035,1.22986 7.1267,-0.89607 l -17.11214,-28.93208 c 0,0 2.90344,-1.71058 3.28611,-2.60347 l 24.74991,28.24945 5.67562,-3.96824 -28.20655,-26.54255 c 0.8929,-0.89289 1.96268,-3.58481 1.96268,-3.58481 l 36.39984,22.83012 6.44354,-4.69429 -42.05118,-21.08035 c 0.60979,-1.2761 0.6165,-4.27623 0.6165,-4.27623 l 49.49982,18.572 7.16907,-6.48644 -56.88283,-14.46577 c 0,-2.02906 -0.72503,-3.88349 -0.72503,-3.88349 l 66.31327,10.96677 7.21145,-7.46776 -74.89052,-7.22074 c -0.72838,-2.18514 -2.81637,-4.55683 -2.81637,-4.55683 l 86.02834,3.58479 8.88008,-10.12341 -107.14591,0 z m -19.75849,7.5246 -0.87075,1.35186 -9.109,0.21704 11.35228,3.9517 0.79065,5.89163 c 5.4606,-3.0177 2.80206,-4.88585 9.69966,-7.32875 l 0.40205,-2.36523 -3.60805,-0.23255 -0.81907,-0.62632 -7.83777,-0.85938 z m -40.989227,1.13792 0.933793,2.94556 c 6.897611,2.4429 4.239067,4.31105 9.699668,7.32875 l 0.790649,-5.89163 11.352277,-3.9517 -22.776387,-0.43098 z m 7.831563,1.00562 a 2.0836513,2.0836513 0 0 1 2.083594,2.0836 2.0836513,2.0836513 0 0 1 -2.083594,2.08411 2.0836513,2.0836513 0 0 1 -2.083594,-2.08411 2.0836513,2.0836513 0 0 1 2.083594,-2.0836 z m -6.979417,3.53932 c -1.681703,0.0345 -4.30289,0.69358 -6.097302,1.34669 0.19521,2.09548 1.381993,3.46651 1.939933,5.24516 0.199948,0.63741 0.379352,2.39744 0.580842,3.20807 0.201491,0.81063 0.999422,0.52814 0.999422,0.52814 0,0 -0.287237,-2.15585 1.29346,-4.3832 0,0 5.748271,-0.64616 6.538619,-1.79576 -1.939949,-1.22145 -2.446242,-3.15966 -3.952214,-3.95221 -0.286303,-0.15067 -0.742196,-0.20838 -1.30276,-0.19689 z m 52.081571,0 c -0.56056,-0.0115 -1.01697,0.0462 -1.30328,0.19689 -1.50597,0.79255 -2.01174,2.73076 -3.95169,3.95221 0.79035,1.1496 6.53862,1.79576 6.53862,1.79576 1.5807,2.22735 1.29294,4.3832 1.29294,4.3832 0,0 0.79845,0.28249 0.99994,-0.52814 0.20149,-0.81063 0.38089,-2.57066 0.58084,-3.20807 0.55794,-1.77865 1.74473,-3.14968 1.93994,-5.24516 -1.79442,-0.65311 -4.41561,-1.31221 -6.09731,-1.34669 z m -35.251076,0.12971 -3.728453,1.02268 -1.623674,6.37429 8.779825,9.32088 4.449858,-11.06496 -7.877556,-5.65289 z m 18.420586,0 -7.87756,5.65289 4.44986,11.06496 8.77982,-9.32088 -1.62367,-6.37429 -3.72845,-1.02268 z m -9.2103,6.1991 -16.05121,47.99759 7.128245,4.63383 -7.020758,12.33154 3.114021,2.89907 6.335014,-13.95887 1.297078,0.92501 -6.021337,14.64459 3.972882,3.54345 4.294835,-16.8584 c 0.98381,-0.46297 1.28055,0.008 1.39629,0.64442 l -3.22151,18.57613 4.77645,4.93922 4.77646,-4.93922 -3.22151,-18.57613 c 0.11574,-0.63627 0.41248,-1.10739 1.3963,-0.64442 l 4.29482,16.8584 3.97289,-3.54345 -6.02134,-14.64459 1.29708,-0.92501 6.33501,13.95887 3.11403,-2.89907 -7.02077,-12.33154 7.12773,-4.63383 -16.0507,-47.99759 z m 15.20786,50.53129 -4.55269,2.62567 7.82071,10.20093 c 0,0 -0.909,1.07802 -0.86403,1.7172 0.0357,0.50797 0.87126,1.25524 0.87126,1.25524 l -4.08812,4.71701 c 0,0 -2.41939,-0.12083 -3.39307,0.43254 1.01011,0.702 1.42208,0.67871 1.76061,1.30742 0.0484,1.11231 -0.14521,2.31664 -0.14521,2.31664 1.08986,-0.40312 2.13612,-0.81 3.31763,-1.11258 1.88611,0.3869 8.82944,3.99098 8.82944,3.99098 0,0 -5.32048,-6.37823 -5.6963,-7.18355 0.16107,-0.64426 2.04846,-2.70734 2.04846,-2.70734 0.48319,-0.59055 0.87216,-0.64265 1.24798,0.0553 0,0 0.91694,1.21042 1.38441,2.78175 0.0717,0.24093 -1.00169,1.74895 -0.86713,1.98025 0.30491,0.52406 1.68274,-0.12136 2.0743,0.37465 1.89767,2.40382 2.88792,5.81234 2.97036,6.19704 -0.64426,1.2885 -3.17811,4.2199 -3.17811,4.2199 0,0 3.44657,-1.26662 5.18108,-1.75546 0.76104,-0.21447 1.45986,1.96165 1.45986,1.96165 0.32213,-0.42953 0.3219,-5.95125 0.2682,-7.1324 -0.46825,-0.9625 -1.99756,-3.19122 -3.59926,-5.38314 -0.27253,-0.37293 0.61397,-1.80858 0.34572,-2.16937 -0.40199,-0.54062 -1.46534,0.0933 -1.95079,-0.24545 -1.21611,-0.84876 -1.86552,-2.18797 -1.86552,-2.18797 -0.26845,-0.64426 0.0631,-1.03209 0.65371,-1.13948 0,0 1.81971,-0.38479 3.02875,-0.33642 3.2213,4.99303 3.85507,9.69089 3.85507,9.69089 0,0 0.6687,-8.21526 0.0884,-11.31043 0,0 2.46218,-1.75668 2.31304,-2.20917 -0.11909,-0.36131 -2.5709,0.0579 -2.5709,0.0579 l -0.45114,-1.68518 c -0.13821,-0.581 -0.61514,-0.62955 -0.85007,0.0465 l -0.5948,1.95543 -6.13244,1.19891 c -0.38449,0.12816 -0.0414,-1.09736 -0.64492,-1.63555 -0.4078,-0.36364 -1.90089,0.0294 -1.98748,-0.18709 l -6.08697,-10.70321 z m -30.560922,0.0966 -7.102409,12.34705 c -0.214751,0.53684 -0.682276,0.53824 -1.326533,0.32351 l -8.858893,-1.71773 0.322461,12.93876 c 0,0 0.536612,-4.45606 3.757911,-9.44904 l 3.319177,0.57825 c 0.59059,0.10736 0.922158,0.49522 0.653706,1.13948 0,0 -6.925633,7.99949 -7.892023,9.98593 -0.05369,1.18115 0.429762,4.1878 0.751893,4.61729 0,0 1.279154,0 2.040183,0.21498 1.734521,0.48884 4.939234,2.09394 4.939234,2.09394 0,0 -3.114167,-3.2213 -3.758428,-4.5098 0.161071,-0.75163 5.852356,-11.38227 5.852356,-11.38227 0.375822,-0.69794 1.054703,-0.30736 1.537891,0.28319 0,0 1.79075,1.91836 1.95182,2.56264 -0.375819,0.80532 -5.744868,7.08639 -5.744868,7.08639 l 11.489221,-5.58313 -5.691126,-6.54997 c -0.69795,-0.75166 -0.680488,-0.80452 -0.08992,-1.71723 l 8.3044,-10.68512 -4.456057,-2.57712 z" />
  </g>
</svg>
